# xmcd CD database file
#
# Track frame offsets:
#	182
#	17602
#	32025
#	47990
#	67160
#	85310
#	105852
#	122670
#	134540
#	152217
#
# Disc length: 2268 seconds
#
# Revision: 2
# Processed by: cddbd v1.5.1PL0 Copyright (c) Steve Scherf et al.
# Submitted via: CDex 1.51
#
DISCID=8308da0a
DTITLE=Garth Brooks - In Pieces
DYEAR=1993
DGENRE=Country
TTITLE0=Standing Outside The Fire
TTITLE1=The Night I Called The Old Man Out
TTITLE2=American Honky-Tonk Bar Association
TTITLE3=One Night A Day
TTITLE4=Kickin' And Screamin'
TTITLE5=Ain't Going Down (Til The Sun Comes Up)
TTITLE6=The Red Strokes
TTITLE7=Callin' Baton Rouge
TTITLE8=The Night Will Only Know
TTITLE9=The Cowboy Song
EXTD=YEAR: 1993
EXTT0=
EXTT1=
EXTT2=
EXTT3=
EXTT4=
EXTT5=
EXTT6=
EXTT7=
EXTT8=
EXTT9=
PLAYORDER=
